<?xml version="1.0" encoding="UTF-8" standalone="no"?>
<!-- 由 Microsoft Visio, SVG Export 生成 fengpeng.svg Page-13 -->

<svg
   width="1.61508in"
   height="0.711272in"
   viewBox="0 0 116.286 51.2116"
   xml:space="preserve"
   color-interpolation-filters="sRGB"
   class="st3"
   version="1.1"
   id="svg2"
   sodipodi:docname="fengpeng.svg"
   inkscape:version="1.3.2 (091e20e, 2023-11-25, custom)"
   xmlns:inkscape="http://www.inkscape.org/namespaces/inkscape"
   xmlns:sodipodi="http://sodipodi.sourceforge.net/DTD/sodipodi-0.dtd"
   xmlns="http://www.w3.org/2000/svg"
   xmlns:svg="http://www.w3.org/2000/svg"><defs
   id="defs2" /><sodipodi:namedview
   id="namedview2"
   pagecolor="#ffffff"
   bordercolor="#000000"
   borderopacity="0.25"
   inkscape:showpageshadow="2"
   inkscape:pageopacity="0.0"
   inkscape:pagecheckerboard="0"
   inkscape:deskcolor="#d1d1d1"
   inkscape:document-units="in"
   inkscape:zoom="8.3135717"
   inkscape:cx="77.52384"
   inkscape:cy="34.100867"
   inkscape:window-width="1920"
   inkscape:window-height="1017"
   inkscape:window-x="-8"
   inkscape:window-y="-8"
   inkscape:window-maximized="1"
   inkscape:current-layer="svg2" />
	<style
   type="text/css"
   id="style1">
	<![CDATA[
		.st1 {fill:#4f4d30;stroke:#ffffff;stroke-linecap:round;stroke-linejoin:round;stroke-width:4.5}
		.st2 {fill:#ffffff;font-family:华文新魏;font-size:1.99999em}
		.st3 {fill:none;fill-rule:evenodd;font-size:12px;overflow:visible;stroke-linecap:square;stroke-miterlimit:3}
	]]>
	</style>

	<g
   id="g2">
		<title
   id="title1">页-13</title>
		<g
   id="shape1-1"
   transform="translate(2.2499,-2.25)">
			<title
   id="title2">圆角矩形</title>
			<desc
   id="desc2">【风 蓬】</desc>
			<g
   id="path2"
   class="st1"><path
     style="color:#000000;fill:#4f4d30;stroke-linecap:round;stroke-linejoin:round;stroke-miterlimit:3;-inkscape-stroke:none"
     d="m 6.33,51.21 h 99.13 a 6.3278,6.3278 -180 0 0 6.33,-6.33 V 10.83 A 6.3278,6.3278 -180 0 0 105.46,4.5 H 6.33 A 6.3278,6.3278 -180 0 0 0,10.83 v 34.05 a 6.3278,6.3278 -180 0 0 6.33,6.33 z"
     id="path3" /><path
     style="color:#000000;fill:#ffffff;stroke-linecap:round;stroke-linejoin:round;stroke-miterlimit:3;-inkscape-stroke:none"
     d="M 6.3300781,2.25 C 1.6170735,2.2483611 -2.2516389,6.1170735 -2.25,10.830078 v 34.050781 c -5.488e-4,4.712104 3.867737,8.581717 8.5800781,8.580078 H 105.45898 c 4.71301,0.0016 8.58172,-3.869026 8.58008,-8.582031 V 10.830078 C 114.0407,6.1170735 110.17199,2.2483611 105.45898,2.25 Z m 0,4.5 H 105.46094 c 2.27992,-7.928e-4 4.07892,1.8001579 4.07812,4.080078 v 34.050781 c 8e-4,2.279921 -1.7982,4.080871 -4.07812,4.080078 H 6.3300781 C 4.0501579,48.96173 2.2492072,47.16078 2.25,44.880859 V 10.830078 C 2.2492072,8.5501579 4.0501579,6.7492072 6.3300781,6.75 Z"
     id="path4" /></g>
			<path
   d="m 27.913885,17.228091 q -2.303989,2.01599 -3.503983,4.775976 -1.199994,2.759986 -1.199994,5.85597 0,3.095985 1.199994,5.855971 1.199994,2.759986 3.503983,4.775976 H 18.697931 V 17.228091 Z m 24.527877,18.743906 q 0,0.719996 -0.119999,1.007995 -0.096,0.287998 -0.431998,0.287998 -0.575997,0 -1.871991,-0.311998 -1.271993,-0.287999 -2.447987,-0.863996 -1.151995,-0.575997 -1.991991,-1.439993 -0.839995,-0.887995 -1.223993,-1.91999 -0.359999,-1.055995 -0.359999,-2.807986 0,-1.751991 0.144,-3.815981 0.167999,-2.087989 0.167999,-2.903985 0,-0.815996 -0.215999,-1.247994 -0.215999,-0.455998 -1.031995,-0.455998 -0.791996,0 -2.735986,0.887996 -1.94399,0.887995 -2.231989,1.199994 -0.263999,0.287998 -0.263999,0.863995 0,0.359999 0.383998,0.431998 1.439993,0.167999 2.303989,0.815996 0.119999,0.072 0.215999,0.072 0.096,0 0.143999,-0.167999 0.072,-0.191999 0.167999,-1.439993 0.024,-0.575997 0.311999,-0.575997 0.167999,0 0.863995,0.287998 0.719997,0.263999 0.719997,0.599997 0,0.144 -0.167999,0.383998 -0.168,0.239999 -0.431998,1.271994 -0.263999,1.031995 -0.263999,1.247994 0,0.215999 0.096,0.407998 0.383998,0.719996 0.551997,1.295993 0.167999,0.551998 0.383998,0.791996 0.239999,0.215999 0.239999,0.791996 0,1.151995 -0.359999,1.751992 -0.335998,0.575997 -0.599997,0.575997 -0.263998,0 -0.407998,-0.551998 -0.143999,-0.575997 -0.479997,-1.223993 -0.311999,-0.671997 -0.431998,-0.863996 -0.096,-0.191999 -0.215999,-0.191999 -0.119999,0 -0.239999,0.143999 -0.671996,0.767996 -1.199994,1.079995 -0.503997,0.287998 -1.199994,0.479997 -0.695996,0.191999 -1.199994,0.215999 -0.479997,0.024 -0.527997,0.191999 -0.119999,0.671997 -1.151994,1.703992 -1.031995,1.007995 -2.06399,1.007995 -1.031995,0 -1.031995,-0.167999 0,-0.168 0.383998,-0.479998 1.847991,-1.607992 2.423988,-2.591987 0.599997,-1.007995 0.887996,-2.447988 0.311998,-1.463992 0.239999,-1.775991 -0.048,-0.335998 -0.048,-1.751991 0,-1.439993 0.048,-2.303989 0.072,-0.863995 0.167999,-1.175994 0.096,-0.311998 0.287998,-0.311998 0.455998,0 0.983995,-0.215999 0.12,-0.048 1.271994,-0.287999 1.175994,-0.263998 1.559992,-0.311998 1.103995,-0.167999 2.735986,-0.743996 1.079995,-0.383998 1.727992,-0.383998 0.647997,0 1.439993,0.359998 0.815996,0.359998 0.815996,0.839996 0,0.239998 -0.215999,0.383998 -0.623997,0.407998 -1.103995,2.231988 -0.455998,1.823991 -0.455998,4.415978 0,4.199979 1.247994,5.687972 1.247994,1.463993 2.663987,1.463993 0.335998,0 0.575997,-0.12 0.263999,-0.119999 0.359998,-0.311998 0.096,-0.215999 0.096,-1.007995 0,-0.815996 -0.263999,-2.13599 -0.239999,-1.343993 -0.503997,-1.91999 -0.263999,-0.575997 -0.263999,-0.719996 0,-0.167999 0.072,-0.167999 0.12,0 0.647997,0.647996 0.527998,0.623997 1.223994,1.799991 0.695997,1.151995 0.935995,2.255989 0.263999,1.079995 0.263999,2.231989 z M 36.745841,31.196021 q 0.191999,0 1.175994,-0.791996 1.007995,-0.815996 1.415993,-1.391993 0.431998,-0.575997 0.431998,-0.815996 0,-0.239999 -0.671997,-1.247994 -0.647997,-1.031995 -0.839996,-1.199994 -0.167999,-0.191999 -0.287998,-0.191999 -0.12,0 -0.144,0.383998 0,0.383998 -0.191999,1.151994 -0.167999,0.743997 -0.791996,2.471988 -0.263998,0.767996 -0.263998,1.367993 0,0.263999 0.167999,0.263999 z m 36.407804,3.695981 q 0,0.407998 0.167999,0.575997 0.167999,0.167999 1.223994,0.431998 1.055995,0.287999 2.111989,0.359998 3.527983,0.311999 4.535978,0.647997 1.031994,0.359998 1.031994,0.767996 0,0.215999 -0.191999,0.335999 -0.191999,0.119999 -1.055994,0.311998 -0.863996,0.191999 -2.13599,0.335998 -1.271993,0.168 -1.823991,0.168 -1.223993,0 -1.391993,-0.359999 -0.383998,-0.839995 -1.175994,-1.295993 -0.767996,-0.455998 -1.775991,-0.455998 l -1.319993,0.048 q -0.815996,0 -2.663987,-0.455998 -0.527997,-0.119999 -1.247994,-0.119999 -0.719996,0 -1.535992,0.167999 -0.791996,0.167999 -1.247994,0.407998 -0.431998,0.239999 -0.719996,0.239999 -0.263999,0 -0.527997,-0.479998 -0.263999,-0.479998 -0.263999,-0.815996 0,-0.311998 0.191999,-0.431998 0.191999,-0.119999 0.623997,-0.119999 0.503997,0 0.911995,-0.12 0.407998,-0.143999 0.407998,-0.407997 0,-0.503998 -0.695996,-1.607992 -0.144,-0.239999 -0.287999,-0.959996 -0.143999,-0.743996 -0.143999,-1.391993 0,-0.815996 0.599997,-0.815996 0.287998,0 0.719996,0.287999 0.431998,0.287999 0.431998,0.527997 0,0.215999 -0.191999,0.479998 -0.191999,0.263999 -0.191999,0.647997 0,1.079994 1.295993,2.159989 0.215999,0.167999 0.359999,0.431998 0.143999,0.263998 1.031995,0.503997 0.887995,0.239999 2.135989,0.239999 1.271993,0 1.343993,-0.191999 0.096,-0.215999 0.096,-0.887996 0,-0.407998 -0.335999,-0.335998 -1.175994,0.215999 -1.367993,0.215999 -0.191999,0 -0.551997,0.096 -0.359998,0.072 -0.479998,0.143999 -0.119999,0.072 -0.239998,0.072 -0.12,0 -0.215999,-0.287998 -0.096,-0.287999 -0.096,-0.575997 0,-0.311999 0.311999,-0.311999 0.335998,0 1.535992,-0.383998 1.223994,-0.407998 1.295993,-0.431998 0.072,-0.048 0.072,-0.191999 0,-0.143999 -0.143999,-0.143999 -0.144,0 -0.671997,0.096 -0.503997,0.072 -0.623997,0.119999 -0.119999,0.024 -0.239999,0.024 -0.455997,0 -0.455997,-0.599997 0,-0.599997 0.311998,-0.599997 0.335998,0 0.575997,-0.096 0.239999,-0.096 0.599997,-0.191999 0.359998,-0.119999 0.455998,-0.167999 0.096,-0.072 0.096,-0.167999 0,-0.239999 -0.191999,-0.239999 -0.191999,0 -0.647996,0.096 -0.431998,0.072 -0.479998,0.119999 -0.048,0.048 -0.119999,0.048 -0.239999,0 -0.479998,-0.647997 -0.072,-0.167999 -0.167999,-0.167999 -0.072,0 -0.119999,0.048 -0.455998,0.431998 -1.055995,0.575997 -0.599997,0.119999 -1.007995,0.119999 -0.383998,0 -0.767996,-0.143999 -0.383998,-0.167999 -0.383998,-0.335998 0,-0.311999 0.911995,-0.455998 0.911995,-0.167999 1.319993,-0.383998 0.407998,-0.215999 1.343994,-0.959995 0.935995,-0.767996 1.079994,-0.935996 0.144,-0.191999 0.144,-0.287998 0,-0.263999 -0.647997,-0.263999 -0.575997,0 -0.863996,0.167999 -0.767996,0.455998 -1.079994,0.455998 -0.311999,0 -0.311999,-0.407998 0,-0.191999 0.239999,-0.551997 0.263999,-0.359998 1.079995,-1.439993 0.839995,-1.079995 1.319993,-1.607992 0.479997,-0.527997 0.647997,-0.527997 0.191999,0 0.335998,-0.287999 0.143999,-0.311998 0.143999,-0.455998 0,-0.143999 -0.215999,-0.143999 -0.191999,0 -0.983995,0.263999 -0.791996,0.263999 -0.911995,0.359998 -0.096,0.096 -0.096,0.263999 0,0.143999 0.048,0.311998 0.072,0.167999 0.072,0.431998 0,0.239999 -0.287999,0.431998 -0.263999,0.191999 -0.527997,0.191999 -0.239999,0 -0.551997,-0.407998 -0.311999,-0.431998 -0.503998,-0.431998 -0.191999,0 -0.671997,0.239999 -0.479997,0.239999 -0.695996,0.455998 -0.191999,0.191999 -0.431998,0.191999 -0.239999,0 -0.767996,-0.743997 -0.527997,-0.743996 -0.527997,-0.959995 0,-0.239999 0.167999,-0.335998 0.167999,-0.096 1.775991,-0.575997 0.383998,-0.096 0.383998,-0.335999 0,-0.239998 -0.072,-0.647996 -0.072,-0.407998 -0.072,-0.911996 0,-0.503997 0.096,-0.623997 0.12,-0.143999 0.431998,-0.143999 0.311998,0 0.887996,0.143999 0.599997,0.12 0.863995,0.287999 0.263999,0.143999 0.263999,0.407998 l -0.096,0.839996 q 0,0.191999 0.096,0.263998 0.096,0.048 0.359998,0.048 l 2.03999,-0.048 q 0.311998,0 0.407998,-0.072 0.119999,-0.072 0.191999,-0.263999 1.127994,-2.663987 1.367993,-3.191984 0.263999,-0.527997 0.551997,-0.527997 0.287999,0 0.719997,0.287998 0.455997,0.287999 0.455997,0.599997 0,0.287999 -0.407998,1.127995 -0.407998,0.839995 -0.599997,1.175994 -0.191999,0.335998 -0.191999,0.455997 0,0.263999 0.335999,0.263999 0.335998,0 1.127994,-0.239999 0.791996,-0.239999 0.935995,-0.431998 0.168,-0.191999 0.311999,-0.191999 0.263998,0 0.479997,0.407998 0.215999,0.407998 0.215999,0.815996 0,0.407998 -0.239998,0.551998 -0.215999,0.119999 -0.815996,0.167999 -0.575998,0.024 -1.343994,0.215999 -0.743996,0.191999 -1.559992,0.431997 -0.791996,0.239999 -0.911995,0.335999 -0.12,0.096 -0.239999,0.311998 -0.119999,0.191999 -0.119999,0.335998 0,0.144 0.479997,0.144 h 0.455998 q 0.479997,0 1.079994,0.119999 0.623997,0.12 0.623997,0.503998 0,0.167999 -0.119999,0.263998 -0.911996,0.695997 -1.223994,0.983995 -0.287999,0.287999 -0.287999,0.527998 0,0.479997 1.127995,0.959995 1.127994,0.455998 2.01599,0.647997 1.295993,0.287998 2.063989,0.527997 0.767997,0.239999 0.863996,0.335998 0.119999,0.096 0.119999,0.215999 0,0.407998 -0.767996,0.623997 -0.743996,0.191999 -1.823991,0.191999 -1.079994,0 -1.343993,-0.072 -0.263998,-0.072 -0.383998,-0.311999 -0.455998,-0.911995 -1.295993,-1.319993 -0.839996,-0.431998 -1.055995,-0.431998 -0.215999,0 -0.215999,0.311998 0,0.287999 0.119999,0.431998 0.144,0.12 0.479998,0.143999 0.335998,0 0.671997,0 0.335998,0 0.407998,0.168 0.072,0.167999 0.072,0.383998 0,0.503997 -0.671996,0.767996 -0.695997,0.311998 -0.695997,0.431998 0,0.239998 0.431998,0.191999 0.455998,-0.072 0.623997,-0.072 0.527997,0 0.527997,0.623997 0,0.263999 -0.191999,0.407998 -0.167999,0.119999 -0.935995,0.383998 -0.287999,0.096 -0.287999,0.311998 0,0.215999 0.239999,0.215999 0.239999,0 0.695997,-0.096 0.479997,-0.12 0.623996,-0.215999 0.168,-0.096 0.335999,-0.096 0.191999,0 0.311998,0.072 0.12,0.048 0.383998,0.335998 0.287999,0.263999 0.359998,0.455998 0.072,0.167999 0.072,0.455998 0,0.287998 -0.359998,0.287998 l -0.503998,-0.024 q -0.359998,0 -1.103994,0.072 -0.743996,0.048 -0.983995,0.167999 -0.215999,0.096 -0.311999,0.263999 -0.072,0.143999 -0.072,1.343993 z m -1.367993,-9.239954 q 0.263998,0 0.479997,-0.407997 0.215999,-0.407998 0.215999,-0.623997 0,-0.215999 -0.431998,-0.215999 -0.431998,0 -0.647996,0.287998 -0.192,0.263999 -0.192,0.479998 0,0.215999 0.192,0.359998 0.215998,0.119999 0.383998,0.119999 z m -0.287999,2.615987 q 0,-0.311998 -0.263999,-0.311998 -0.239998,0 -0.527997,0.263999 -0.263999,0.239998 -0.263999,0.455997 0,0.191999 0.407998,0.191999 0.287999,0 0.455998,-0.167999 0.191999,-0.191999 0.191999,-0.431998 z M 65.017685,25.29205 q 0.287999,0 0.863996,0.503998 l 0.983995,0.911995 q 0.455998,0.407998 0.455998,0.719997 0,0.575997 -1.007995,0.575997 -0.431998,0 -1.007995,-0.12 -0.575997,-0.143999 -0.719996,-0.551997 -0.12,-0.407998 -0.12,-0.935995 0,-1.103995 0.551997,-1.103995 z m 28.079862,13.199934 h -9.215954 q 2.303988,-2.01599 3.503982,-4.775976 1.199994,-2.759986 1.199994,-5.855971 0,-3.095984 -1.199994,-5.85597 -1.199994,-2.759986 -3.503982,-4.775976 h 9.215954 z"
   id="text2"
   class="st2"
   style="fill:#ffffff"
   aria-label="【风 蓬】" />		</g>
	</g>
</svg>
